inDegrees=yes
name=ik_lifting_orientations
DataType=double
version=3
OpenSimVersion=4.5-2024-01-10-34fd6af
endheader
time	pelvis_tilt	pelvis_list	pelvis_rotation	pelvis_tx	pelvis_ty	pelvis_tz	hip_flexion_r	hip_adduction_r	hip_rotation_r	knee_angle_r	knee_angle_r_beta	ankle_angle_r	subtalar_angle_r	mtp_angle_r	hip_flexion_l	hip_adduction_l	hip_rotation_l	knee_angle_l	knee_angle_l_beta	ankle_angle_l	subtalar_angle_l	mtp_angle_l	lumbar_extension	lumbar_bending	lumbar_rotation	arm_flex_r	arm_add_r	arm_rot_r	elbow_flex_r	pro_sup_r	wrist_flex_r	wrist_dev_r	arm_flex_l	arm_add_l	arm_rot_l	elbow_flex_l	pro_sup_l	wrist_flex_l	wrist_dev_l
0.37	-43.08596759690343	-16.64344764747477	34.84906558119275	0	0.9399999998679526	0	44.4496431108431	-10.02326172653133	0	60.3002749016576	1.052438336891625	-4.981985560853914	0	0	44.4496431108431	-10.02326172653133	0	60.3002749016576	1.052438336891625	-4.981985560853914	0	0	-30.20316284286683	-21.07552945619847	5.225689462549986	66.28528753703239	-12.68741942636536	-46.90927486217019	0.03216836224831995	-0.2468590509643802	0	0	0	-13.3117720002197	0	90.3936221847421	-0.2468590509643802	0	0
0.38	-42.62335844594348	-15.92914417870853	34.22789485965625	0	0.9399999998679526	0	44.44980609936034	-10.02323804181095	0	60.30020422494222	1.052437103350237	-4.982009413854639	0	0	44.44980609936034	-10.02323804181095	0	60.30020422494222	1.052437103350237	-4.982009413854639	0	0	-30.48099560961926	-22.73750441485211	5.368149009061776	65.93361980721673	-11.83602168681375	-47.65892468387539	0.03222473038552107	-0.2468079566572492	0	0	0	-13.3120303966323	0	90.39354066218534	-0.2468079566572492	0	0
0.39	-42.63288560452524	-15.93387628082946	34.22715240038632	0	0.9399999998679526	0	44.45008210905055	-10.02319734300432	0	60.30008604614295	1.052435040741084	-4.982050504147519	0	0	44.45008210905055	-10.02319734300432	0	60.30008604614295	1.052435040741084	-4.982050504147519	0	0	-28.44115569403464	-22.13941623864158	6.032764033924897	64.32763790311436	-12.36019824836962	-46.91381467333122	0.03650265903864759	-0.2467218460853361	0	0	0	-13.31246408765795	0	90.39340327003927	-0.2467218460853361	0	0
0.4	-41.76715288585206	-14.61409086048501	34.3021933398925	0	0.9399999998679526	0	44.45027696142716	-10.02316902729294	0	60.30000168372298	1.05243356833909	-4.982079006844743	0	0	44.45027696142716	-10.02316902729294	0	60.30000168372298	1.05243356833909	-4.982079006844743	0	0	-29.60689418562757	-23.76862030877374	5.522217318314508	64.22235390179532	-11.30301294309822	-47.57136527169936	0.03772993709348645	-0.2466607882975407	0	0	0	-13.31277274269724	0	90.39330585043636	-0.2466607882975407	0	0
0.41	-40.30252354307909	-14.50756913017095	33.9960323545282	0	0.9399999998679526	0	44.45045020170658	-10.0231435610218	0	60.29992740747314	1.052432271973975	-4.982104693217408	0	0	44.45045020170658	-10.0231435610218	0	60.29992740747314	1.052432271973975	-4.982104693217408	0	0	-29.61687676878149	-23.93426544284291	5.503941034277845	64.20913387267031	-10.07787856026473	-46.99622189183312	0.04785602280669526	-0.2466067036682681	0	0	0	-13.31304528182478	0	90.39321955670127	-0.2466067036682681	0	0
0.42	-40.30009495403366	-14.51684312822671	33.99619215193018	0	0.9399999998679526	0	44.45060258126389	-10.0231211585902	0	60.29986213038408	1.052431132673844	-4.982127284431259	0	0	44.45060258126389	-10.0231211585902	0	60.29986213038408	1.052431132673844	-4.982127284431259	0	0	-28.79126213962185	-24.375430416966	4.500055488325192	64.42641796810005	-8.68002474994311	-46.36810822499429	0.06862553676969704	-0.2465591433877929	0	0	0	-13.31328488435775	0	90.39314367276945	-0.2465591433877929	0	0
0.43	-38.40729412791799	-13.77383357011088	34.40222375128036	0	0.9399999998679526	0	44.45081628813988	-10.02308982924723	0	60.29977040680739	1.05242953179543	-4.982158856380495	0	0	44.45081628813988	-10.02308982924723	0	60.29977040680739	1.05242953179543	-4.982158856380495	0	0	-30.14598861778563	-23.51145379336078	4.075863942207907	64.73175868725637	-8.293686964483058	-45.11662782207677	0.110298645728711	-0.246492388635544	0	0	0	-13.31362141101162	0	90.39303716345745	-0.246492388635544	0	0
0.44	-37.9674816854613	-13.07124324814138	33.72604398356516	0	0.9399999998679526	0	44.45264103516806	-10.02289677688222	0	60.29880075496304	1.052412608178148	-4.98233989971799	0	0	44.45264103516806	-10.02289677688222	0	60.29880075496304	1.052412608178148	-4.98233989971799	0	0	-30.54480281190552	-24.66887807474112	2.862403314858688	65.41561075840792	-6.791457324937261	-44.86545794491317	0.4341556926059177	-0.24587102461816	0	0	0	-13.31697657911781	0	90.3920457637761	-0.24587102461816	0	0
0.45	-36.52643033969294	-12.9763772430146	33.38464268211496	0	0.9399999998679526	0	44.45606883384628	-10.02255222312231	0	60.2969435802017	1.052380194363777	-4.982658094294512	0	0	44.45606883384628	-10.02255222312231	0	60.2969435802017	1.052380194363777	-4.982658094294512	0	0	-29.62776071848452	-24.7661108454163	3.536790844815666	63.89241933006024	-5.92585384823201	-44.53990293546611	1.002328872925714	-0.2446922095899986	0	0	0	-13.32338680975028	0	90.39016494024609	-0.2446922095899986	0	0
0.46	-33.69863194058586	-11.27003489180021	31.76684670742798	0	0.9399999998679526	0	44.45641357587316	-10.02250249800124	0	60.29679572661139	1.052377613831815	-4.982707899825382	0	0	44.45641357587316	-10.02250249800124	0	60.29679572661139	1.052377613831815	-4.982707899825382	0	0	-31.11806038466536	-26.31783830737206	4.705218180887576	63.10117496837447	-4.737317495053032	-44.17604152779886	1.751231275891369	-0.2445842899572832	0	0	0	-13.32393154602843	0	90.38999275110677	-0.2445842899572832	0	0
